<svg xmlns="http://www.w3.org/2000/svg" viewBox="0 0 96 96">
<path d="M38 92 Q34 84 40 82 M58 92 Q64 85 57 82" stroke="#3da268" stroke-width="2.5" fill="none" stroke-linecap="round"/>
<path d="M34 50 h28 l-2.5 38 q-0.6 5 -11.5 5 q-10.9 0 -11.5 -5 Z" fill="#f2e8d8" stroke="#c9b89a" stroke-width="2.2"/>
<path d="M41 68 q0 -8 7 -8 q7 0 7 8 l0 24 q-3.5 1 -7 1 q-3.5 0 -7 -1 Z" fill="#8a5a33" stroke="#5f3b1e" stroke-width="2"/>
<circle cx="52" cy="79" r="1.6" fill="#ffce6b"/>
<circle cx="39.5" cy="58" r="4" fill="rgba(255,214,69,0.9)" stroke="#c9b89a" stroke-width="1.6"/>
<path d="M10 52 Q10 14 48 14 Q86 14 86 52 Z" fill="#d84a4a" stroke="#a83030" stroke-width="2.6"/>
<path d="M10 52 Q10 20 34 15.5 Q22 24 20 52 Z" fill="#e8686a"/>
<ellipse cx="30" cy="34" rx="6.5" ry="5.5" fill="#fff"/>
<ellipse cx="52" cy="24" rx="5.5" ry="4.5" fill="#fff"/>
<ellipse cx="68" cy="40" rx="6" ry="5" fill="#fff"/>
<rect x="56" y="4" width="9" height="14" rx="2.5" fill="#c9b89a" stroke="#a8987a" stroke-width="1.6"/>
<ellipse cx="63" cy="2.6" rx="4.5" ry="2.6" fill="rgba(220,215,235,0.8)"/>
</svg>
