<svg xmlns="http://www.w3.org/2000/svg" viewBox="0 0 32 32">
<path d="M16 2.2 C19.5 7.5 25.4 11.6 25.4 18.6 C25.4 24.8 21.2 29.6 16 29.6 C10.8 29.6 6.6 24.8 6.6 18.6 C6.6 14.3 8.6 11.3 10.9 8.4 C11.8 10.6 13 12.1 14.2 12.9 C14.9 8.9 15.6 5.6 16 2.2 Z" fill="#ff9f45" stroke="#c9502e" stroke-width="1.5" stroke-linejoin="round"/>
<path d="M16 11.5 C18.6 15 21 17.4 21 20.9 C21 24.7 18.7 27.2 16 27.2 C13.3 27.2 11 24.7 11 20.9 C11 17.4 13.4 15 16 11.5 Z" fill="#ffd645"/>
<path d="M16 18.5 C17.5 20.6 18.2 21.9 18.2 23.4 C18.2 25.3 17.2 26.3 16 26.3 C14.8 26.3 13.8 25.3 13.8 23.4 C13.8 21.9 14.5 20.6 16 18.5 Z" fill="#fff3d6"/>
</svg>
