<svg xmlns="http://www.w3.org/2000/svg" viewBox="0 0 32 32">
<path d="M8 5 H27 Q24.5 5 24.5 8.5 V24 Q24.5 27.5 21 27.5 H8 Z" fill="#f2e8d8" stroke="#b8a888" stroke-width="1.5"/>
<path d="M8 5 Q4.5 5 4.5 8.5 Q4.5 12 8 12 H11 Q8 10.5 8 8.5 Q8 6.5 9.5 5.6 Z" fill="#d9c9a8" stroke="#b8a888" stroke-width="1.3"/>
<path d="M27 5 Q30 5.2 29.5 8 Q29 10.5 26 10 Q27.5 8 27 5 Z" fill="#d9c9a8"/>
<path d="M12 12 h9 M12 16.5 h9 M12 21 h6" stroke="#8f8570" stroke-width="1.8" stroke-linecap="round"/>
<path d="M20 24.5 l0.9 1.8 2 0.3 -1.45 1.4 0.35 2 -1.8 -0.95 -1.8 0.95 0.35 -2 -1.45 -1.4 2 -0.3 Z" fill="#ffce6b"/>
</svg>
